<svg version="1" xmlns="http://www.w3.org/2000/svg" width="508" height="508" viewBox="0 0 381.000000 381.000000"><path d="M141.7 33.6c-.1.1-9.2.5-20.2.9-24.7.8-36.6 1.6-48.1 3.1-7.9 1-21.9 6.6-29.9 11.9C20.1 65.1 4.7 91.6 1.2 122.4c-.9 7.6-.8 110.7.1 135.1.7 20.8 2.5 29.6 8.6 42 12.6 25.6 37.4 44.8 63.6 49.4 15 2.6 47.4 3.6 115 3.6 71.7 0 104.7-1.2 119.9-4.1 4-.8 15-4.6 19-6.6 22.3-11.2 41.8-38.3 47.5-65.8.6-3 1.4-6.6 1.7-8 2.6-12.5 2.6-119.9 0-150-1.1-12-3.6-20.9-8.9-31.5-4.2-8.6-8-13.8-16.1-22.3-13.8-14.6-29.7-23.3-48.6-26.8-5.4-1.1-18.6-1.9-44.5-3-14.2-.6-116.3-1.2-116.8-.8zm93.8 36.8c44.7.4 55.1.8 60.4 2.1 23.5 5.7 42.1 26.6 44.8 50.1 1 8.3.9 137.4-.1 142.4-2.6 13.4-7.7 23-17.1 32.6-5.2 5.2-9.1 8.1-14.6 10.7-14.8 7.2-11.5 7-108.4 7-118.6.1-114.4.2-126.5-4.5-19.1-7.5-33.8-25.6-36.9-45.7-1.5-9.6-1.5-138.1 0-145.4C41 100.7 52.8 85 69.4 77c4.5-2.2 9.9-4.2 12.1-4.6 2.2-.3 4.4-.8 4.9-1.1.4-.3 21.1-.8 46-1 24.8-.3 45.2-.6 45.4-.8.2-.1 1.1-.1 2 .1.9.2 26 .6 55.7.8z"/></svg>