<?xml version="1.0" encoding="utf-8"?>
<!-- Generator: Adobe Illustrator 16.0.0, SVG Export Plug-In . SVG Version: 6.00 Build 0)  -->
<!DOCTYPE svg PUBLIC "-//W3C//DTD SVG 1.1//EN" "http://www.w3.org/Graphics/SVG/1.1/DTD/svg11.dtd">
<svg version="1.1" id="Layer_1" xmlns="http://www.w3.org/2000/svg" xmlns:xlink="http://www.w3.org/1999/xlink" x="0px" y="0px"
	 width="103px" height="50px" viewBox="0 0 103 50" enable-background="new 0 0 103 50" xml:space="preserve">
<g>
	<g>
		<polygon fill="#002D3D" points="81.379,41.671 81.379,9.692 69.618,9.692 69.618,1.333 101.5,1.333 101.5,9.692 89.738,9.692 
			89.738,41.671 		"/>
		<path fill="#002D3D" d="M1.5,40.315c7.288-0.86,12.96-7.076,12.96-14.592V9.851H8.569V1.536h14.206v24.188
			c0,12.104-9.395,22.055-21.275,22.943V40.315z"/>
		<g>
			<polygon fill="#002D3D" points="63.464,1.971 55.152,1.971 46.218,15.302 37.283,1.971 28.971,1.971 42.062,21.502 
				28.971,41.034 37.283,41.034 46.218,27.703 55.152,41.034 63.464,41.034 50.374,21.502 			"/>
			<path fill="#002D3D" d="M64.658,41.671h-9.846l-8.595-12.824l-8.595,12.824h-9.845l13.518-20.169L27.777,1.333h9.845
				l8.595,12.825l8.595-12.825h9.846L51.14,21.502L64.658,41.671z M55.492,40.397h6.778L49.606,21.502L62.271,2.607h-6.778
				l-9.274,13.839L36.943,2.607h-6.778l12.664,18.895L30.165,40.397h6.778l9.275-13.838L55.492,40.397z"/>
		</g>
	</g>
</g>
</svg>
